{
	"accessors" : 
	[
		{
			"bufferView" : 2,
			"byteOffset" : 0,
			"componentType" : 5126,
			"count" : 3048,
			"max" : 
			[
				1,
				0.6120656132698059,
				0.2508402466773987,
				1
			],
			"min" : 
			[
				0.1939721554517746,
				0.05284162983298302,
				0.0328759141266346,
				1
			],
			"name" : "accessor_color_m0-PolyPaper21_-255176",
			"type" : "VEC4"
		},
		{
			"bufferView" : 2,
			"byteOffset" : 48768,
			"componentType" : 5126,
			"count" : 3048,
			"max" : 
			[
				1,
				0.6120656132698059,
				0.2508402466773987,
				1
			],
			"min" : 
			[
				0.1939721554517746,
				0.05284162983298302,
				0.0328759141266346,
				1
			],
			"name" : "accessor_color_m1-PolyPaper20_-255182",
			"type" : "VEC4"
		},
		{
			"bufferView" : 2,
			"byteOffset" : 97536,
			"componentType" : 5126,
			"count" : 3048,
			"max" : 
			[
				1,
				0.6120656132698059,
				0.2508402466773987,
				1
			],
			"min" : 
			[
				0.1939721554517746,
				0.05284162983298302,
				0.0328759141266346,
				1
			],
			"name" : "accessor_color_m2-PolyPaper20_-255188",
			"type" : "VEC4"
		},
		{
			"bufferView" : 2,
			"byteOffset" : 146304,
			"componentType" : 5126,
			"count" : 2976,
			"max" : 
			[
				1,
				0.6120656132698059,
				0.2508402466773987,
				1
			],
			"min" : 
			[
				0.1939721554517746,
				0.05284162983298302,
				0.0328759141266346,
				1
			],
			"name" : "accessor_color_m3-PolyPaper20_-255194",
			"type" : "VEC4"
		},
		{
			"bufferView" : 2,
			"byteOffset" : 193920,
			"componentType" : 5126,
			"count" : 120,
			"max" : 
			[
				0.9075471758842468,
				0.05284162983298302,
				0.0328759141266346,
				1
			],
			"min" : 
			[
				0.9075471758842468,
				0.05284162983298302,
				0.0328759141266346,
				1
			],
			"name" : "accessor_color_m5-PolyPaper9_-255206",
			"type" : "VEC4"
		},
		{
			"bufferView" : 0,
			"byteOffset" : 0,
			"componentType" : 5123,
			"count" : 4572,
			"max" : 
			[
				3047
			],
			"min" : 
			[
				0
			],
			"name" : "accessor_indices_0_m0-PolyPaper21_-255176",
			"type" : "SCALAR"
		},
		{
			"bufferView" : 0,
			"byteOffset" : 9144,
			"componentType" : 5123,
			"count" : 4572,
			"max" : 
			[
				3047
			],
			"min" : 
			[
				0
			],
			"name" : "accessor_indices_0_m1-PolyPaper20_-255182",
			"type" : "SCALAR"
		},
		{
			"bufferView" : 0,
			"byteOffset" : 18288,
			"componentType" : 5123,
			"count" : 4572,
			"max" : 
			[
				3047
			],
			"min" : 
			[
				0
			],
			"name" : "accessor_indices_0_m2-PolyPaper20_-255188",
			"type" : "SCALAR"
		},
		{
			"bufferView" : 0,
			"byteOffset" : 27432,
			"componentType" : 5123,
			"count" : 4464,
			"max" : 
			[
				2975
			],
			"min" : 
			[
				0
			],
			"name" : "accessor_indices_0_m3-PolyPaper20_-255194",
			"type" : "SCALAR"
		},
		{
			"bufferView" : 0,
			"byteOffset" : 36360,
			"componentType" : 5123,
			"count" : 180,
			"max" : 
			[
				119
			],
			"min" : 
			[
				0
			],
			"name" : "accessor_indices_0_m5-PolyPaper9_-255206",
			"type" : "SCALAR"
		},
		{
			"bufferView" : 1,
			"byteOffset" : 36576,
			"componentType" : 5126,
			"count" : 3048,
			"max" : 
			[
				1,
				1,
				1
			],
			"min" : 
			[
				-1,
				-1,
				-1
			],
			"name" : "accessor_normal_m0-PolyPaper21_-255176",
			"type" : "VEC3"
		},
		{
			"bufferView" : 1,
			"byteOffset" : 109728,
			"componentType" : 5126,
			"count" : 3048,
			"max" : 
			[
				1,
				1,
				1
			],
			"min" : 
			[
				-1,
				-1,
				-1
			],
			"name" : "accessor_normal_m1-PolyPaper20_-255182",
			"type" : "VEC3"
		},
		{
			"bufferView" : 1,
			"byteOffset" : 182880,
			"componentType" : 5126,
			"count" : 3048,
			"max" : 
			[
				1,
				1,
				1
			],
			"min" : 
			[
				-1,
				-1,
				-1
			],
			"name" : "accessor_normal_m2-PolyPaper20_-255188",
			"type" : "VEC3"
		},
		{
			"bufferView" : 1,
			"byteOffset" : 255168,
			"componentType" : 5126,
			"count" : 2976,
			"max" : 
			[
				1,
				1,
				1
			],
			"min" : 
			[
				-1,
				-1,
				-1
			],
			"name" : "accessor_normal_m3-PolyPaper20_-255194",
			"type" : "VEC3"
		},
		{
			"bufferView" : 1,
			"byteOffset" : 292320,
			"componentType" : 5126,
			"count" : 120,
			"max" : 
			[
				1,
				1,
				1
			],
			"min" : 
			[
				-1,
				-1,
				-1
			],
			"name" : "accessor_normal_m5-PolyPaper9_-255206",
			"type" : "VEC3"
		},
		{
			"bufferView" : 1,
			"byteOffset" : 0,
			"componentType" : 5126,
			"count" : 3048,
			"max" : 
			[
				1.282158,
				3.303422,
				1.269055
			],
			"min" : 
			[
				-0.6184495,
				1.02333,
				-0.8210216
			],
			"name" : "accessor_position_m0-PolyPaper21_-255176",
			"type" : "VEC3"
		},
		{
			"bufferView" : 1,
			"byteOffset" : 73152,
			"componentType" : 5126,
			"count" : 3048,
			"max" : 
			[
				1.471061,
				2.733375,
				1.459047
			],
			"min" : 
			[
				-0.6184012,
				0.4532347,
				-1.201049
			],
			"name" : "accessor_position_m1-PolyPaper20_-255182",
			"type" : "VEC3"
		},
		{
			"bufferView" : 1,
			"byteOffset" : 146304,
			"componentType" : 5126,
			"count" : 3048,
			"max" : 
			[
				1.471971,
				2.921621,
				1.649083
			],
			"min" : 
			[
				-0.8084806,
				0.4533187,
				-1.390971
			],
			"name" : "accessor_position_m2-PolyPaper20_-255188",
			"type" : "VEC3"
		},
		{
			"bufferView" : 1,
			"byteOffset" : 219456,
			"componentType" : 5126,
			"count" : 2976,
			"max" : 
			[
				1.471232,
				3.492439,
				1.649084
			],
			"min" : 
			[
				-0.8084943,
				0.4532515,
				-1.390959
			],
			"name" : "accessor_position_m3-PolyPaper20_-255194",
			"type" : "VEC3"
		},
		{
			"bufferView" : 1,
			"byteOffset" : 290880,
			"componentType" : 5126,
			"count" : 120,
			"max" : 
			[
				0.5217465999999999,
				1.023389,
				0.6989221
			],
			"min" : 
			[
				0.3316057,
				0.6433159000000001,
				-0.06106795
			],
			"name" : "accessor_position_m5-PolyPaper9_-255206",
			"type" : "VEC3"
		}
	],
	"asset" : 
	{
		"copyright" : "Unknown",
		"generator" : "glTF 1-to-2 Upgrader for Google Blocks",
		"version" : "2.0"
	},
	"bufferViews" : 
	[
		{
			"buffer" : 0,
			"byteLength" : 36720,
			"byteOffset" : 0,
			"name" : "ushortBufferView",
			"target" : 34963
		},
		{
			"buffer" : 0,
			"byteLength" : 293760,
			"byteOffset" : 36720,
			"byteStride" : 12,
			"name" : "vec3BufferView",
			"target" : 34962
		},
		{
			"buffer" : 0,
			"byteLength" : 195840,
			"byteOffset" : 330480,
			"byteStride" : 16,
			"name" : "vec4BufferView",
			"target" : 34962
		}
	],
	"buffers" : 
	[
		{
			"byteLength" : 526320,
			"name" : "model",
			"uri" : "model.bin"
		}
	],
	"materials" : 
	[
		{
			"alphaMode" : "OPAQUE",
			"doubleSided" : false,
			"name" : "BlocksPaper",
			"pbrMetallicRoughness" : 
			{
				"baseColorFactor" : 
				[
					1,
					1,
					1,
					1
				],
				"metallicFactor" : 0,
				"roughnessFactor" : 0.6
			}
		},
		{
			"alphaMode" : "BLEND",
			"doubleSided" : false,
			"name" : "BlocksGlass",
			"pbrMetallicRoughness" : 
			{
				"baseColorFactor" : 
				[
					0.2,
					0.2,
					1,
					0.3
				],
				"metallicFactor" : 1,
				"roughnessFactor" : 0.4
			}
		},
		{
			"alphaMode" : "OPAQUE",
			"doubleSided" : true,
			"name" : "BlocksGem",
			"pbrMetallicRoughness" : 
			{
				"baseColorFactor" : 
				[
					1,
					0.4,
					1,
					1
				],
				"metallicFactor" : 0,
				"roughnessFactor" : 0.1
			}
		}
	],
	"meshes" : 
	[
		{
			"name" : "mesh_m0-PolyPaper21_-255176",
			"primitives" : 
			[
				{
					"attributes" : 
					{
						"COLOR_0" : 0,
						"NORMAL" : 10,
						"POSITION" : 15
					},
					"indices" : 5,
					"material" : 0,
					"mode" : 4
				}
			]
		},
		{
			"name" : "mesh_m1-PolyPaper20_-255182",
			"primitives" : 
			[
				{
					"attributes" : 
					{
						"COLOR_0" : 1,
						"NORMAL" : 11,
						"POSITION" : 16
					},
					"indices" : 6,
					"material" : 0,
					"mode" : 4
				}
			]
		},
		{
			"name" : "mesh_m2-PolyPaper20_-255188",
			"primitives" : 
			[
				{
					"attributes" : 
					{
						"COLOR_0" : 2,
						"NORMAL" : 12,
						"POSITION" : 17
					},
					"indices" : 7,
					"material" : 0,
					"mode" : 4
				}
			]
		},
		{
			"name" : "mesh_m3-PolyPaper20_-255194",
			"primitives" : 
			[
				{
					"attributes" : 
					{
						"COLOR_0" : 3,
						"NORMAL" : 13,
						"POSITION" : 18
					},
					"indices" : 8,
					"material" : 0,
					"mode" : 4
				}
			]
		},
		{
			"name" : "mesh_m5-PolyPaper9_-255206",
			"primitives" : 
			[
				{
					"attributes" : 
					{
						"COLOR_0" : 4,
						"NORMAL" : 14,
						"POSITION" : 19
					},
					"indices" : 9,
					"material" : 0,
					"mode" : 4
				}
			]
		}
	],
	"nodes" : 
	[
		{
			"matrix" : 
			[
				1,
				0,
				0,
				0,
				0,
				1,
				0,
				0,
				0,
				0,
				1,
				0,
				0,
				0,
				0,
				1
			],
			"mesh" : 1,
			"name" : "node_MeshObject-2116901888-PolyPaper20"
		},
		{
			"matrix" : 
			[
				1,
				0,
				0,
				0,
				0,
				1,
				0,
				0,
				0,
				0,
				1,
				0,
				0,
				0,
				0,
				1
			],
			"mesh" : 4,
			"name" : "node_MeshObject-906384384-PolyPaper9"
		},
		{
			"matrix" : 
			[
				1,
				0,
				0,
				0,
				0,
				1,
				0,
				0,
				0,
				0,
				1,
				0,
				0,
				0,
				0,
				1
			],
			"mesh" : 2,
			"name" : "node_MeshObject1897773056-PolyPaper20"
		},
		{
			"matrix" : 
			[
				1,
				0,
				0,
				0,
				0,
				1,
				0,
				0,
				0,
				0,
				1,
				0,
				0,
				0,
				0,
				1
			],
			"mesh" : 0,
			"name" : "node_MeshObject438065152-PolyPaper21"
		},
		{
			"matrix" : 
			[
				1,
				0,
				0,
				0,
				0,
				1,
				0,
				0,
				0,
				0,
				1,
				0,
				0,
				0,
				0,
				1
			],
			"mesh" : 3,
			"name" : "node_MeshObject590179328-PolyPaper20"
		}
	],
	"scene" : 0,
	"scenes" : 
	[
		{
			"extras" : {},
			"name" : "defaultScene",
			"nodes" : 
			[
				3,
				0,
				2,
				4,
				1
			]
		}
	]
}