{
   "accessors" : [
      {
         "bufferView" : 0,
         "byteOffset" : 0,
         "componentType" : 5123,
         "count" : 353814,
         "max" : [ 65533 ],
         "min" : [ 0 ],
         "name" : "buffer-0-group-0-mesh-0-indices",
         "type" : "SCALAR"
      },
      {
         "bufferView" : 2,
         "byteOffset" : 0,
         "componentType" : 5126,
         "count" : 65534,
         "max" : [ 38.91242980957031, 0, 43.54133987426758 ],
         "min" : [ -38.91242980957031, -73.78472137451172, -43.54133987426758 ],
         "name" : "buffer-0-group-0-mesh-0-position",
         "type" : "VEC3"
      },
      {
         "bufferView" : 2,
         "byteOffset" : 786408,
         "componentType" : 5126,
         "count" : 65534,
         "max" : [ 0.9999837279319763, 0.928582489490509, 0.9999752640724182 ],
         "min" : [ -0.9999707341194153, -1.00000011920929, -0.9999980926513672 ],
         "name" : "buffer-0-group-0-mesh-0-normal",
         "type" : "VEC3"
      },
      {
         "bufferView" : 1,
         "byteOffset" : 0,
         "componentType" : 5126,
         "count" : 65534,
         "max" : [ 0.4596500098705292, 0 ],
         "min" : [ 0, -0.9599900245666504 ],
         "name" : "buffer-0-group-0-mesh-0-texcoord",
         "type" : "VEC2"
      },
      {
         "bufferView" : 0,
         "byteOffset" : 707628,
         "componentType" : 5123,
         "count" : 160434,
         "max" : [ 29146 ],
         "min" : [ 0 ],
         "name" : "buffer-0-group-0-mesh-1-indices",
         "type" : "SCALAR"
      },
      {
         "bufferView" : 2,
         "byteOffset" : 1572816,
         "componentType" : 5126,
         "count" : 29147,
         "max" : [ 32.70639038085938, 0, 41.92103958129883 ],
         "min" : [ -38.01058959960938, -38.65013885498047, -43.20627975463867 ],
         "name" : "buffer-0-group-0-mesh-1-position",
         "type" : "VEC3"
      },
      {
         "bufferView" : 2,
         "byteOffset" : 1922580,
         "componentType" : 5126,
         "count" : 29147,
         "max" : [ 0.9999573826789856, 0.9999993443489075, 0.999853253364563 ],
         "min" : [ -0.9998856782913208, -0.9993392825126648, -0.9999919533729553 ],
         "name" : "buffer-0-group-0-mesh-1-normal",
         "type" : "VEC3"
      },
      {
         "bufferView" : 1,
         "byteOffset" : 524272,
         "componentType" : 5126,
         "count" : 29147,
         "max" : [ 0.4391300082206726, 0 ],
         "min" : [ 0, -0.9986900091171265 ],
         "name" : "buffer-0-group-0-mesh-1-texcoord",
         "type" : "VEC2"
      }
   ],
   "asset" : {
      "generator" : "Obj2GltfConverter",
      "version" : "2.0"
   },
   "bufferViews" : [
      {
         "buffer" : 0,
         "byteLength" : 1028496,
         "byteOffset" : 0,
         "byteStride" : 0,
         "name" : "buffer-0-bufferview-ushort",
         "target" : 34963
      },
      {
         "buffer" : 0,
         "byteLength" : 757448,
         "byteOffset" : 1028496,
         "byteStride" : 8,
         "name" : "buffer-0-bufferview-vec2",
         "target" : 34962
      },
      {
         "buffer" : 0,
         "byteLength" : 2272344,
         "byteOffset" : 1785948,
         "byteStride" : 12,
         "name" : "buffer-0-bufferview-vec3",
         "target" : 34962
      },
      {
         "buffer" : 0,
         "byteLength" : 1,
         "byteOffset" : 0,
         "name" : "buffer-0-bufferview-vec4"
      }
   ],
   "buffers" : [
      {
         "byteLength" : 4058292,
         "name" : "buffer-0",
         "uri" : "model_Olympus OM10_20171127_162520277.bin"
      }
   ],
   "images" : [
      {
         "mimeType" : "image/jpeg",
         "name" : "material0-image",
         "uri" : "texture.jpg"
      }
   ],
   "materials" : [
      {
         "alphaMode" : "OPAQUE",
         "doubleSided" : true,
         "name" : "material0",
         "pbrMetallicRoughness" : {
            "baseColorFactor" : [ 1, 1, 1, 1 ],
            "baseColorTexture" : {
               "index" : 0,
               "texCoord" : 0
            },
            "metallicFactor" : 0,
            "roughnessFactor" : 0.9699476628648295
         }
      }
   ],
   "meshes" : [
      {
         "name" : "buffer-0-mesh-0",
         "primitives" : [
            {
               "attributes" : {
                  "NORMAL" : 2,
                  "POSITION" : 1,
                  "TEXCOORD_0" : 3
               },
               "indices" : 0,
               "material" : 0,
               "mode" : 4
            },
            {
               "attributes" : {
                  "NORMAL" : 6,
                  "POSITION" : 5,
                  "TEXCOORD_0" : 7
               },
               "indices" : 4,
               "material" : 0,
               "mode" : 4
            }
         ]
      }
   ],
   "nodes" : [
      {
         "mesh" : 0,
         "name" : "node-0"
      }
   ],
   "samplers" : [
      {
         "name" : "material0-sampler",
         "wrapS" : 10497,
         "wrapT" : 10497
      }
   ],
   "scenes" : [
      {
         "name" : "scene-0",
         "nodes" : [ 0 ]
      }
   ],
   "textures" : [
      {
         "name" : "material0-texture",
         "sampler" : 0,
         "source" : 0
      }
   ]
}
